<svg width="49" height="48" viewBox="0 0 49 48" fill="none" xmlns="http://www.w3.org/2000/svg">
<path d="M24.5001 15.7834C36.6009 15.7834 46.4104 12.8405 46.4104 9.2103C46.4104 5.58008 36.6009 2.63721 24.5001 2.63721C12.3994 2.63721 2.58984 5.58008 2.58984 9.2103C2.58984 12.8405 12.3994 15.7834 24.5001 15.7834Z" stroke="white" stroke-width="4.74723" stroke-linecap="round" stroke-linejoin="round"/>
<path d="M10.0065 14.1406C5.46009 15.3457 2.58984 17.1073 2.58984 19.0704C2.58984 22.701 12.3991 25.6435 24.5001 25.6435C36.6012 25.6435 46.4104 22.701 46.4104 19.0704C46.4104 17.1073 43.5413 15.3457 38.9938 14.1406C35.131 15.1627 30.0566 15.7839 24.5001 15.7839C18.9437 15.7839 13.8704 15.1627 10.0065 14.1406Z" fill="#FBCF00" stroke="white" stroke-width="4.74723" stroke-linecap="round" stroke-linejoin="round"/>
<path d="M10.0065 23.9996C5.46009 25.2047 2.58984 26.9663 2.58984 28.9295C2.58984 32.56 12.3991 35.5025 24.5001 35.5025C36.6012 35.5025 46.4104 32.56 46.4104 28.9295C46.4104 26.9663 43.5413 25.2047 38.9938 23.9996" stroke="white" stroke-width="4.74723" stroke-linecap="round" stroke-linejoin="round"/>
<path d="M10.0065 33.8596C5.46009 35.0646 2.58984 36.8262 2.58984 38.7894C2.58984 42.4199 12.3991 45.3625 24.5001 45.3625C36.6012 45.3625 46.4104 42.4199 46.4104 38.7894C46.4104 36.8262 43.5413 35.0646 38.9938 33.8596" stroke="white" stroke-width="4.74723" stroke-linecap="round" stroke-linejoin="round"/>
</svg>
