<svg width="101" height="96" viewBox="0 0 101 96" fill="none" xmlns="http://www.w3.org/2000/svg">
<path d="M15.7059 47.8235V37.1176C15.7059 28.5995 19.0897 20.4303 25.1129 14.407C31.1362 8.38381 39.3054 5 47.8235 5C56.3417 5 64.5109 8.38381 70.5341 14.407C76.5574 20.4303 79.9412 28.5995 79.9412 37.1176V47.8235M5 79.9412C5 82.7806 6.12794 85.5036 8.13568 87.5114C10.1434 89.5191 12.8665 90.6471 15.7059 90.6471C18.5453 90.6471 21.2683 89.5191 23.2761 87.5114C25.2838 85.5036 26.4118 82.7806 26.4118 79.9412C26.4118 77.1018 25.2838 74.3787 23.2761 72.371C21.2683 70.3632 18.5453 69.2353 15.7059 69.2353C12.8665 69.2353 10.1434 70.3632 8.13568 72.371C6.12794 74.3787 5 77.1018 5 79.9412ZM69.2353 79.9412C69.2353 82.7806 70.3632 85.5036 72.371 87.5114C74.3787 89.5191 77.1018 90.6471 79.9412 90.6471C82.7806 90.6471 85.5036 89.5191 87.5114 87.5114C89.5191 85.5036 90.6471 82.7806 90.6471 79.9412C90.6471 77.1018 89.5191 74.3787 87.5114 72.371C85.5036 70.3632 82.7806 69.2353 79.9412 69.2353C77.1018 69.2353 74.3787 70.3632 72.371 72.371C70.3632 74.3787 69.2353 77.1018 69.2353 79.9412Z" stroke="#00FF66" stroke-width="10" stroke-linecap="round" stroke-linejoin="round"/>
<path d="M63.8828 32L79.9416 48.0588L96.0005 32" stroke="#00FF66" stroke-width="10" stroke-linecap="round" stroke-linejoin="round"/>
</svg>
