<svg width="26" height="31" viewBox="0 0 26 31" fill="none" xmlns="http://www.w3.org/2000/svg">
<path d="M13 0.925293C16.4478 0.925293 19.7544 2.27988 22.1924 4.69106C24.6304 7.10224 26 10.3725 26 13.7824C26 19.1053 21.8978 24.6824 13.8667 30.6396C13.6166 30.825 13.3125 30.9253 13 30.9253C12.6875 30.9253 12.3834 30.825 12.1333 30.6396C4.10222 24.6824 0 19.1053 0 13.7824C0 10.3725 1.36964 7.10224 3.80761 4.69106C6.24558 2.27988 9.55219 0.925293 13 0.925293ZM13 9.49672C11.8507 9.49672 10.7485 9.94825 9.93587 10.752C9.12321 11.5557 8.66667 12.6458 8.66667 13.7824C8.66667 14.9191 9.12321 16.0092 9.93587 16.8129C10.7485 17.6166 11.8507 18.0681 13 18.0681C14.1493 18.0681 15.2515 17.6166 16.0641 16.8129C16.8768 16.0092 17.3333 14.9191 17.3333 13.7824C17.3333 12.6458 16.8768 11.5557 16.0641 10.752C15.2515 9.94825 14.1493 9.49672 13 9.49672Z" fill="#AAAAAA"/>
</svg>
