<svg width="89" height="98" viewBox="0 0 89 98" fill="none" xmlns="http://www.w3.org/2000/svg">
<path d="M48.9879 8.90909C66.2376 8.90909 80.1084 22.8964 80.1084 40.0909C80.1084 52.5636 72.8618 63.21 62.3253 68.1991V89.0909H31.2048V75.7273H26.759C21.8242 75.7273 17.8674 71.7627 17.8674 66.8182V53.4545H11.1988C9.33153 53.4545 8.26454 51.2273 9.33153 49.8464L17.8674 38.5764C18.2591 30.5729 21.7096 23.0273 27.5036 17.5039C33.2975 11.9805 40.9906 8.90291 48.9879 8.90909ZM48.9879 0C28.5818 0 11.6878 15.2345 9.24261 35.1909L2.30719 44.5455H2.17382L2.0849 44.6791C-0.360282 48.0645 -0.671487 52.5191 1.2402 56.2164C2.84068 59.29 5.68599 61.4282 8.97587 62.0964V66.8182C8.97587 75.0591 14.6665 82.0527 22.3132 84.0573V98H71.2169V73.5C82.3313 66.0609 89 53.7218 89 40.0909C89 17.9518 71.039 0 48.9879 0ZM68.2382 36.9727L59.5244 39.2445L65.9264 45.7482C67.4824 47.2627 67.4824 49.8464 65.9264 51.4055C64.3703 52.9645 61.7918 52.9645 60.2802 51.4055L53.8338 44.9909L51.522 53.7218C50.9885 55.9045 48.8101 57.1073 46.765 56.5727C46.2474 56.4428 45.7605 56.2115 45.3325 55.8922C44.9044 55.5729 44.5436 55.1719 44.2709 54.7123C43.9981 54.2527 43.8188 53.7436 43.7433 53.2143C43.6678 52.685 43.6975 52.1459 43.8308 51.6282L46.1871 42.8973L37.4733 45.2582C36.9566 45.3917 36.4186 45.4215 35.8903 45.3459C35.3621 45.2702 34.8539 45.0905 34.3953 44.8173C33.9366 44.544 33.5364 44.1825 33.2177 43.7536C32.899 43.3247 32.6682 42.8368 32.5385 42.3182C32.005 40.3136 33.2499 38.0864 35.3838 37.5518L44.0976 35.2355L37.6956 28.7764C37.0268 28.011 36.6734 27.0194 36.707 26.0026C36.7406 24.9858 37.1588 24.0199 37.8767 23.3005C38.5947 22.5812 39.5587 22.1622 40.5735 22.1285C41.5883 22.0948 42.5779 22.4489 43.3418 23.1191L49.8326 29.5336L52.1 20.8027C52.6335 18.62 54.8564 17.3727 56.9459 17.9518C59.1243 18.5309 60.3691 20.7136 59.7912 22.8518L57.4349 31.6273L66.1931 29.2664C68.3271 28.6873 70.5055 29.9345 71.0835 32.1173C71.6614 34.2109 70.4166 36.4382 68.2382 36.9727Z" fill="#5868FF"/>
</svg>
