<svg width="147" height="40" viewBox="0 0 147 40" fill="none" xmlns="http://www.w3.org/2000/svg">
<g clip-path="url(#clip0_392_2784)">
<path d="M42.731 0.000488281L30.245 8.74381L33.0088 10.1284L22.0254 33.7446L29.3998 40.0005L41.4225 14.0539L44.0901 14.9479L42.731 0.000488281Z" fill="url(#paint0_linear_392_2784)"/>
<path d="M50.6946 37.0461H39.7471V21.6421H50.6946V25.2405H44.3072V27.7263H50.2981V30.9716H44.3072V33.4494H50.6946V37.0461Z" fill="#185BCB"/>
<path d="M57.3851 37.0461H52.8169V21.6421H59.7133C63.8541 21.6421 65.9833 23.5741 65.9833 26.8729C65.9833 28.6882 65.1006 30.4356 63.4772 31.2081L66.4238 37.0461H61.3318L58.8845 31.8801H57.39L57.3851 37.0461ZM57.3851 28.8907H59.2663C60.547 28.8907 61.3318 28.1117 61.3318 26.9473C61.3318 25.783 60.503 24.9846 59.2777 24.9846H57.3851V28.8907Z" fill="#185BCB"/>
<path d="M71.7104 32.5101C71.8393 33.3846 72.9145 33.9676 74.1414 33.9676C75.507 33.9676 76.3456 33.4234 76.3456 32.672C76.3456 31.9562 75.7762 31.6469 74.1087 31.3473L72.0547 30.9846C69.2044 30.4987 67.6496 28.8712 67.6496 26.4582C67.6496 23.3408 70.3383 21.3765 74.0369 21.3765C78.168 21.3765 80.4798 23.2566 80.501 26.2445H76.3456C76.3129 25.2842 75.3569 24.719 74.1299 24.719C72.9357 24.719 72.1835 25.2048 72.1835 25.9773C72.1835 26.7141 72.8182 27.0995 74.2915 27.3554L76.4124 27.7182C79.4242 28.2412 80.8322 29.6615 80.8322 32.1586C80.8322 35.3084 78.1761 37.3149 74.0467 37.3149C69.8847 37.3149 67.3999 35.5854 67.3901 32.5117L71.7104 32.5101Z" fill="#185BCB"/>
<path d="M91.347 33.9822H86.6156L85.8178 37.0461H81.1631L86.2208 21.6421H91.9425L97.0003 37.0461H92.1547L91.347 33.9822ZM87.4493 30.7903H90.5248L89.0303 25.1967H88.9438L87.4493 30.7903Z" fill="#185BCB"/>
<path d="M99.8653 37.0461V25.2405H95.7783V21.6421H108.512V25.2405H104.425V37.0461H99.8653Z" fill="#185BCB"/>
<path d="M114.632 21.6421H110.072V37.0461H114.632V21.6421Z" fill="#185BCB"/>
<path d="M116.405 29.3394C116.405 24.2576 119.363 21.375 124.106 21.375C128.204 21.375 131.301 24.0228 131.312 27.8446H126.945C126.837 26.094 125.687 24.9297 124.106 24.9297C122.235 24.9394 121.058 26.575 121.058 29.328C121.058 32.1151 122.231 33.7588 124.124 33.7588C125.694 33.7588 126.834 32.6252 126.973 30.8341H131.337C131.316 34.677 128.293 37.3118 124.109 37.3118C119.357 37.3118 116.409 34.4195 116.409 29.3378" fill="#185BCB"/>
<path d="M141.41 33.9822H136.679L135.863 37.0461H131.226L136.284 21.6421H142.004L147.062 37.0461H142.201L141.41 33.9822ZM137.506 30.7903H140.583L139.087 25.1967H139.005L137.506 30.7903Z" fill="#185BCB"/>
<path d="M27.8161 37.6609L25.7049 34.3799L22.0308 40.056H26.2874L27.8161 37.6609Z" fill="#2957A3"/>
<path d="M29.3576 40.0563L27.8158 37.6611L26.2871 40.0563H29.3576Z" fill="#2957A3"/>
<path d="M22.0307 40.056L25.7048 34.3798L23.8319 31.4697L18.2749 40.056H22.0307Z" fill="#2957A3"/>
<path d="M14.2186 16.044L10.9082 15.9015L12.4549 19.4043L15.6625 19.5759L14.2186 16.044ZM9.13641 15.8253L3.69528 15.5905L5.72 19.0432L10.6733 19.3087L9.13641 15.8253ZM11.3797 20.9087L6.66628 20.6561L8.43975 23.6828L12.6964 23.8917L11.3797 20.9087ZM6.37261 9.55489L-0.0229492 9.24072L2.68048 13.8512L8.37775 14.0974L6.37261 9.55489ZM11.6799 9.81562L8.14607 9.64072L10.1479 14.1751L13.517 14.3209L11.6799 9.81562ZM16.0557 10.0407L13.4746 9.91441L15.3052 14.4083L17.8471 14.5185L16.0557 10.0407ZM18.534 16.2383L16.0084 16.1298L17.4572 19.6715L19.9681 19.8059L18.534 16.2383ZM20.6027 21.4108L18.1065 21.2764L19.3073 24.2237L21.7758 24.3436L20.6027 21.4108ZM16.3151 21.1727L13.1663 21.0108L14.4715 23.984L17.5126 24.133L16.3151 21.1727Z" fill="#E8AE4A"/>
<path d="M9.21533 25.04L17.916 40.0004H18.8348H29.4004L22.2969 25.6813L9.21533 25.04Z" fill="#1563E4"/>
</g>
<defs>
<linearGradient id="paint0_linear_392_2784" x1="20.4144" y1="22.1696" x2="45.3408" y2="18.6939" gradientUnits="userSpaceOnUse">
<stop stop-color="#034EA2"/>
<stop offset="1" stop-color="#0095DA"/>
</linearGradient>
<clipPath id="clip0_392_2784">
<rect width="147" height="40" fill="white"/>
</clipPath>
</defs>
</svg>
