<svg width="15" height="14" viewBox="0 0 15 14" fill="none" xmlns="http://www.w3.org/2000/svg">
<path d="M5.1153 10.1857L6.92363 11.4857C7.15696 11.7023 7.68196 11.8107 8.03196 11.8107H10.2486C10.9486 11.8107 11.707 11.3232 11.882 10.6732L13.282 6.71901C13.5736 5.96068 13.0486 5.31068 12.1736 5.31068H9.8403C9.4903 5.31068 9.19863 5.03985 9.25696 4.66068L9.54863 2.92735C9.6653 2.43985 9.3153 1.89818 8.7903 1.73568C8.32363 1.57318 7.7403 1.78985 7.50696 2.11485L5.1153 5.41901" stroke="#667085" stroke-miterlimit="10"/>
<path d="M2.14026 10.1856V4.87731C2.14026 4.11898 2.49026 3.84814 3.30693 3.84814H3.89026C4.70693 3.84814 5.05693 4.11898 5.05693 4.87731V10.1856C5.05693 10.944 4.70693 11.2148 3.89026 11.2148H3.30693C2.49026 11.2148 2.14026 10.944 2.14026 10.1856Z" stroke="#667085" stroke-linecap="round" stroke-linejoin="round"/>
</svg>
