<svg width="250" height="69" viewBox="0 0 250 69" fill="none" xmlns="http://www.w3.org/2000/svg">
<g clip-path="url(#clip0_392_2718)">
<path d="M72.6721 0L51.4374 15.0659L56.1377 17.4518L37.4585 58.1455L50.0001 68.9252L70.4468 24.2159L74.9835 25.7563L72.6721 0Z" fill="white"/>
<path d="M86.2149 63.8354H67.5967V37.2922H86.2149V43.4927H75.352V47.7761H85.5406V53.3683H75.352V57.6377H86.2149V63.8354Z" fill="white"/>
<path d="M97.5938 63.8354H89.8247V37.2922H101.553C108.596 37.2922 112.216 40.6213 112.216 46.3055C112.216 49.4337 110.715 52.4446 107.955 53.7757L112.966 63.8354H104.306L100.144 54.9337H97.6022L97.5938 63.8354ZM97.5938 49.7825H100.793C102.971 49.7825 104.306 48.4403 104.306 46.4339C104.306 44.4275 102.896 43.0518 100.812 43.0518H97.5938V49.7825Z" fill="white"/>
<path d="M121.956 56.0194C122.175 57.5262 124.004 58.5308 126.09 58.5308C128.413 58.5308 129.839 57.5932 129.839 56.2984C129.839 55.065 128.87 54.532 126.035 54.0158L122.541 53.3907C117.694 52.5536 115.05 49.7491 115.05 45.5913C115.05 40.2196 119.622 36.8347 125.913 36.8347C132.938 36.8347 136.87 40.0745 136.906 45.2229H129.839C129.783 43.5682 128.157 42.5943 126.071 42.5943C124.04 42.5943 122.76 43.4315 122.76 44.7625C122.76 46.0322 123.84 46.6963 126.345 47.1372L129.952 47.7623C135.075 48.6636 137.469 51.1109 137.469 55.4138C137.469 60.8414 132.952 64.2988 125.929 64.2988C118.851 64.2988 114.625 61.3185 114.608 56.0222L121.956 56.0194Z" fill="white"/>
<path d="M155.352 58.5558H147.305L145.948 63.8354H138.032L146.634 37.2922H156.365L164.966 63.8354H156.725L155.352 58.5558ZM148.723 53.0557H153.953L151.412 43.4174H151.265L148.723 53.0557Z" fill="white"/>
<path d="M169.838 63.8354V43.4927H162.888V37.2922H184.544V43.4927H177.594V63.8354H169.838Z" fill="white"/>
<path d="M194.952 37.2922H187.197V63.8354H194.952V37.2922Z" fill="white"/>
<path d="M197.968 50.5554C197.968 41.7989 202.999 36.8318 211.065 36.8318C218.035 36.8318 223.301 41.3942 223.321 47.9798H215.893C215.71 44.9633 213.754 42.9569 211.065 42.9569C207.882 42.9737 205.882 45.7921 205.882 50.5359C205.882 55.3384 207.877 58.1707 211.095 58.1707C213.765 58.1707 215.704 56.2174 215.94 53.1311H223.362C223.326 59.7529 218.185 64.293 211.07 64.293C202.988 64.293 197.974 59.3092 197.974 50.5527" fill="white"/>
<path d="M240.493 58.5558H232.446L231.059 63.8354H223.173L231.775 37.2922H241.503L250.105 63.8354H241.839L240.493 58.5558ZM233.853 53.0557H239.086L236.542 43.4174H236.403L233.853 53.0557Z" fill="white"/>
<path d="M47.3054 64.8928L43.7149 59.2393L37.4663 69.0199H44.7055L47.3054 64.8928Z" fill="white"/>
<path d="M49.9275 69.02L47.3055 64.8928L44.7056 69.02H49.9275Z" fill="white"/>
<path d="M37.4664 69.0201L43.7151 59.2394L40.5297 54.2249L31.0791 69.0201H37.4664Z" fill="white"/>
<path d="M24.1812 27.6455L18.5514 27.3999L21.1818 33.4357L26.6368 33.7315L24.1812 27.6455ZM15.5381 27.2688L6.28446 26.8641L9.72785 32.8135L18.1518 33.2711L15.5381 27.2688ZM19.3533 36.0281L11.3372 35.5928L14.3533 40.8082L21.5924 41.1682L19.3533 36.0281ZM10.8377 16.464L-0.0390625 15.9226L4.5586 23.8671L14.2478 24.2913L10.8377 16.464ZM19.8638 16.9132L13.8538 16.6119L17.2584 24.4252L22.9881 24.6764L19.8638 16.9132ZM27.3055 17.3011L22.916 17.0835L26.0292 24.8271L30.3521 25.0168L27.3055 17.3011ZM31.5203 27.9803L27.2251 27.7934L29.689 33.8962L33.9592 34.1278L31.5203 27.9803ZM35.0386 36.8932L30.7933 36.6616L32.8355 41.7402L37.0336 41.9467L35.0386 36.8932ZM27.7467 36.483L22.3915 36.2039L24.6113 41.3273L29.7833 41.584L27.7467 36.483Z" fill="#E8AE4A"/>
<path d="M15.6714 43.1467L30.4685 68.9253H32.031H49.9998L37.9189 44.2518L15.6714 43.1467Z" fill="white"/>
</g>
<defs>
<clipPath id="clip0_392_2718">
<rect width="250" height="68.9252" fill="white"/>
</clipPath>
</defs>
</svg>
